<?xml version="1.0" standalone="no"?>
<!DOCTYPE svg PUBLIC "-//W3C//DTD SVG 20010904//EN"
 "http://www.w3.org/TR/2001/REC-SVG-20010904/DTD/svg10.dtd">
<svg version="1.0" xmlns="http://www.w3.org/2000/svg"
 width="267.000000pt" height="189.000000pt"  viewBox="0 0 267.000000 189.000000"
 preserveAspectRatio="xMidYMid meet">

<g transform="translate(0.000000,189.000000) scale(0.100000,-0.100000)"
fill="#e5e907" stroke="none">
<path d="M1310 1135 c68 -68 78 -75 114 -75 l40 0 -74 75 c-68 68 -78 75 -114
75 l-40 0 74 -75z"/>
<path d="M1420 1135 c68 -68 78 -75 114 -75 l40 0 -74 75 c-68 68 -78 75 -114
75 l-40 0 74 -75z"/>
<path d="M976 959 l-237 -232 -60 26 c-70 30 -63 13 10 -26 72 -39 180 -54
295 -39 83 10 233 48 224 57 -1 2 -41 -5 -87 -15 -107 -24 -220 -34 -267 -25
l-37 7 222 222 c213 213 221 223 203 239 -10 9 -21 17 -24 17 -3 0 -112 -104
-242 -231z"/>
<path d="M1170 1034 l-95 -97 98 83 99 83 146 -146 c81 -81 155 -147 164 -147
11 0 -48 64 -143 158 -89 86 -164 158 -168 160 -3 1 -49 -41 -101 -94z"/>
<path d="M1475 970 c63 -63 73 -70 109 -70 l40 0 -69 70 c-63 63 -73 70 -109
70 l-40 0 69 -70z"/>
<path d="M1585 970 c63 -63 73 -70 109 -70 l40 0 -69 70 c-63 63 -73 70 -109
70 l-40 0 69 -70z"/>
<path d="M1210 930 c0 -25 4 -30 25 -30 21 0 25 5 25 30 0 25 -4 30 -25 30
-21 0 -25 -5 -25 -30z"/>
<path d="M1290 930 c0 -27 3 -30 30 -30 27 0 30 3 30 30 0 27 -3 30 -30 30
-27 0 -30 -3 -30 -30z"/>
<path d="M1210 850 c0 -25 4 -30 25 -30 21 0 25 5 25 30 0 25 -4 30 -25 30
-21 0 -25 -5 -25 -30z"/>
<path d="M1290 850 c0 -27 3 -30 30 -30 27 0 30 3 30 30 0 27 -3 30 -30 30
-27 0 -30 -3 -30 -30z"/>
<path d="M1595 851 c20 -19 45 -32 75 -36 l45 -7 -34 36 c-29 30 -42 36 -75
36 l-41 0 30 -29z"/>
<path d="M1714 841 c22 -23 51 -41 69 -44 18 -3 41 -9 52 -13 12 -4 0 14 -30
45 -43 45 -54 51 -89 51 l-40 0 38 -39z"/>
<path d="M1316 549 c-40 -31 -34 -62 24 -123 53 -57 62 -89 30 -106 -28 -15
-57 -4 -75 28 l-15 27 2 -35 c3 -34 4 -35 50 -38 40 -3 52 1 74 23 38 38 27
77 -36 136 -28 25 -50 50 -50 55 0 38 75 47 90 12 9 -22 9 -22 9 3 1 44 -58
54 -103 18z"/>
<path d="M38 446 c3 -94 0 -116 -13 -130 -15 -15 -12 -16 37 -15 29 1 45 3 36
6 -16 4 -18 19 -18 124 0 109 2 119 18 119 60 0 69 -103 12 -123 -10 -3 -7 -6
8 -6 32 -1 72 42 72 77 0 44 -27 62 -96 62 l-59 0 3 -114z"/>
<path d="M1095 516 c-50 -22 -70 -52 -69 -103 1 -36 7 -51 33 -76 29 -30 36
-32 98 -32 59 0 68 2 71 20 4 17 2 18 -12 6 -8 -7 -32 -13 -53 -13 -54 0 -93
45 -93 107 0 60 25 85 84 85 27 0 51 -6 60 -16 15 -14 16 -14 16 4 0 33 -78
43 -135 18z"/>
<path d="M1555 523 l-60 -4 3 -96 c3 -84 1 -99 -14 -110 -15 -11 -6 -13 58
-13 60 0 77 3 82 16 9 24 7 29 -6 16 -7 -7 -27 -12 -45 -12 -33 0 -33 1 -33
46 l0 46 35 -4 c24 -3 35 0 35 9 0 8 -13 13 -35 13 -34 0 -35 1 -35 40 0 37 2
40 28 40 15 0 33 -5 40 -12 9 -9 12 -7 12 10 0 12 -1 21 -2 20 -2 -1 -30 -3
-63 -5z"/>
<path d="M2340 523 c-84 -27 -114 -99 -70 -170 23 -38 73 -56 140 -51 40 3 45
6 48 28 2 22 1 23 -8 8 -14 -23 -87 -24 -117 -3 -13 9 -28 33 -34 54 -10 33
-9 45 7 78 18 36 22 38 71 41 44 3 53 0 67 -20 l16 -22 0 26 c0 21 -6 27 -31
32 -36 7 -67 7 -89 -1z"/>
<path d="M2585 523 l-60 -4 3 -101 c3 -75 0 -103 -10 -110 -8 -5 17 -7 62 -6
66 3 75 5 77 23 2 11 0 14 -3 8 -3 -7 -23 -13 -45 -13 l-39 0 0 46 0 46 35 -4
c24 -3 35 0 35 9 0 8 -13 13 -35 13 -34 0 -35 1 -35 40 0 38 2 40 30 40 17 0
33 -7 39 -17 9 -15 10 -14 11 10 0 15 -1 26 -2 25 -2 -1 -30 -3 -63 -5z"/>
<path d="M248 433 c3 -79 6 -90 28 -110 34 -31 94 -31 129 0 23 20 26 32 32
110 6 81 5 87 -13 87 -17 0 -19 -7 -16 -80 3 -74 2 -81 -22 -105 -30 -30 -46
-31 -77 -6 -22 18 -24 27 -24 105 0 79 -2 86 -20 86 -19 0 -20 -6 -17 -87z"/>
<path d="M518 423 c3 -84 1 -99 -14 -110 -15 -11 -9 -13 42 -13 80 0 108 16
112 62 2 28 -2 40 -20 52 -17 12 -20 18 -10 28 15 15 15 51 0 66 -7 7 -35 12
-62 12 l-51 0 3 -97z m82 72 c20 -24 4 -65 -25 -65 -22 0 -25 4 -25 40 0 32 4
40 19 40 10 0 24 -7 31 -15z m12 -106 c23 -31 17 -65 -13 -74 -29 -10 -49 12
-49 55 0 59 27 67 62 19z"/>
<path d="M728 426 c3 -76 0 -96 -13 -110 -15 -15 -10 -16 64 -16 78 0 81 1 80
23 0 12 -3 16 -6 10 -2 -7 -22 -13 -43 -13 -37 0 -39 2 -46 35 -3 20 -4 65 -2
100 4 60 2 65 -17 65 -19 0 -20 -5 -17 -94z"/>
<path d="M918 423 c3 -84 1 -99 -14 -110 -15 -11 -10 -13 37 -12 30 1 46 3 37
6 -16 4 -18 18 -18 109 0 101 -1 104 -22 104 -23 0 -23 -2 -20 -97z"/>
<path d="M1690 416 c0 -74 -4 -106 -12 -109 -7 -3 10 -5 37 -5 28 0 42 2 33 5
-14 3 -18 15 -18 48 0 38 3 43 18 38 9 -4 35 -26 58 -50 30 -32 48 -43 70 -43
26 1 27 2 9 12 -22 12 -84 78 -85 91 0 4 10 21 21 37 21 28 21 30 5 54 -15 23
-23 26 -76 26 l-60 0 0 -104z m94 78 c33 -32 14 -84 -31 -84 -21 0 -23 4 -23
50 0 43 3 50 19 50 11 0 27 -7 35 -16z"/>
<path d="M1927 418 c25 -57 48 -106 52 -111 4 -4 31 42 59 103 33 72 46 110
38 110 -8 0 -28 -36 -47 -80 -18 -44 -36 -77 -40 -73 -3 5 -19 41 -34 81 -23
61 -30 72 -50 72 -23 0 -22 -2 22 -102z"/>
<path d="M2140 416 c0 -74 -4 -106 -12 -109 -7 -3 12 -5 42 -5 30 0 47 2 38 5
-24 6 -30 36 -26 132 3 78 2 81 -19 81 -22 0 -23 -3 -23 -104z"/>
</g>
</svg>
