<?xml version="1.0" standalone="no"?>
<!DOCTYPE svg PUBLIC "-//W3C//DTD SVG 20010904//EN"
 "http://www.w3.org/TR/2001/REC-SVG-20010904/DTD/svg10.dtd">
<svg version="1.0" xmlns="http://www.w3.org/2000/svg"
 width="512.000000pt" height="512.000000pt" viewBox="0 0 512.000000 512.000000"
 preserveAspectRatio="xMidYMid meet">

<g transform="translate(0.000000,512.000000) scale(0.100000,-0.100000)"
fill="blue" stroke="none">
<path d="M1969 5105 c-47 -25 -50 -50 -47 -344 l3 -273 28 -24 c19 -16 40 -24
67 -24 27 0 48 8 67 24 l28 24 3 273 c3 296 0 319 -49 344 -35 19 -66 18 -100
0z"/>
<path d="M630 4553 c-55 -20 -81 -82 -55 -136 9 -19 98 -116 199 -216 181
-179 184 -181 227 -181 62 0 99 37 99 98 0 45 -1 46 -182 230 -196 198 -234
225 -288 205z"/>
<path d="M3334 4545 c-17 -9 -113 -99 -213 -199 -180 -182 -181 -183 -181
-228 0 -61 37 -98 99 -98 43 0 46 2 227 181 101 100 190 197 199 216 41 86
-47 170 -131 128z"/>
<path d="M1866 4150 c-230 -37 -425 -136 -592 -304 -142 -142 -231 -294 -282
-485 -22 -85 -25 -115 -25 -261 0 -146 3 -176 25 -261 51 -191 140 -343 282
-485 142 -142 294 -231 485 -282 85 -22 115 -25 261 -25 146 0 176 3 262 26
119 31 243 89 342 157 158 110 346 344 346 433 0 79 -91 125 -152 78 -14 -11
-42 -50 -64 -87 -195 -334 -633 -495 -1003 -369 -449 152 -693 630 -549 1075
145 452 631 703 1078 558 198 -64 376 -203 474 -372 22 -37 50 -76 64 -87 61
-47 152 -1 152 78 0 89 -188 323 -346 433 -173 119 -355 179 -569 185 -71 2
-157 0 -189 -5z"/>
<path d="M1935 3581 c-11 -5 -28 -18 -38 -29 -24 -26 -158 -407 -159 -450 0
-40 25 -80 58 -92 14 -6 79 -10 145 -10 65 0 119 -4 119 -9 0 -5 -21 -67 -46
-137 -50 -143 -51 -174 -8 -215 18 -17 37 -24 65 -24 65 0 81 27 159 250 38
109 70 205 71 214 4 43 -3 65 -30 92 l-29 29 -131 0 c-75 0 -131 4 -131 9 0 5
21 67 46 138 49 140 51 173 11 211 -26 25 -73 35 -102 23z"/>
<path d="M51 3186 c-48 -27 -63 -84 -36 -135 25 -49 48 -52 344 -49 l273 3 24
28 c33 38 33 96 0 134 l-24 28 -279 2 c-218 2 -283 0 -302 -11z"/>
<path d="M2931 3186 c-87 -48 -50 -186 49 -186 51 0 100 49 100 99 0 75 -83
124 -149 87z"/>
<path d="M3414 3190 c-56 -22 -72 -108 -30 -157 l24 -28 273 -3 c296 -3 319 0
344 49 18 34 19 60 3 94 -23 52 -44 55 -330 54 -145 0 -273 -4 -284 -9z"/>
<path d="M769 1993 c-191 -189 -219 -226 -204 -275 19 -61 79 -89 136 -65 19
8 114 96 217 199 180 183 182 186 182 229 0 62 -37 99 -98 99 -45 0 -45 -1
-233 -187z"/>
<path d="M2967 2152 c-21 -22 -27 -38 -27 -71 0 -43 2 -46 181 -227 100 -101
197 -190 216 -199 85 -41 169 43 128 128 -9 19 -98 116 -199 216 -182 180
-183 181 -228 181 -35 0 -50 -6 -71 -28z"/>
<path d="M1984 1751 c-12 -5 -31 -22 -43 -37 -20 -26 -21 -35 -21 -360 0 -365
4 -401 55 -509 63 -133 205 -243 353 -274 34 -7 227 -11 546 -11 l493 0 12
-56 c7 -30 33 -96 58 -145 77 -154 207 -265 382 -327 l76 -27 369 -3 c272 -2
376 0 398 9 47 19 58 54 58 179 l0 110 160 0 c176 0 206 7 228 55 15 33 15 57
0 90 -22 48 -52 55 -228 55 l-160 0 0 160 0 160 160 0 c120 0 168 4 189 14 66
35 66 137 0 172 -21 10 -69 14 -189 14 l-160 0 0 110 c0 125 -11 160 -58 179
-22 9 -124 12 -398 9 -404 -5 -409 -5 -539 -70 -168 -84 -307 -258 -346 -435
l-12 -54 -511 3 -511 3 -50 27 c-60 32 -114 87 -146 148 -24 44 -24 51 -29
402 l-5 358 -25 25 c-28 28 -74 39 -106 26z m2536 -1091 l0 -460 -271 0 c-314
0 -373 9 -466 69 -121 79 -192 184 -215 319 -15 89 -1 190 39 272 35 73 129
170 199 205 95 48 137 53 437 54 l277 1 0 -460z"/>
</g>
</svg>
