<?xml version="1.0" standalone="no"?>
<!DOCTYPE svg PUBLIC "-//W3C//DTD SVG 20010904//EN"
 "http://www.w3.org/TR/2001/REC-SVG-20010904/DTD/svg10.dtd">
<svg version="1.0" xmlns="http://www.w3.org/2000/svg"
 width="200.000000pt" height="200.000000pt" viewBox="0 0 200.000000 200.000000"
 preserveAspectRatio="xMidYMid meet">

<g transform="translate(0.000000,200.000000) scale(0.100000,-0.100000)"
fill="#e5e907" stroke="none">
<path d="M661 1821 l-21 -29 31 -6 c47 -9 48 -9 36 29 -13 42 -20 43 -46 6z"/>
<path d="M534 1806 c-11 -46 -3 -55 35 -39 l33 14 -23 25 c-28 30 -37 30 -45
0z"/>
<path d="M795 1783 c-16 -9 -32 -17 -34 -19 -5 -4 41 -43 51 -44 8 0 23 68 17
75 -2 2 -17 -4 -34 -12z"/>
<path d="M559 1737 c-127 -67 -137 -255 -18 -334 119 -78 284 -6 305 134 23
158 -145 275 -287 200z"/>
<path d="M420 1735 c0 -4 7 -20 16 -37 l16 -31 23 29 c21 26 21 30 7 36 -21 8
-62 10 -62 3z"/>
<path d="M840 1685 c0 -3 7 -20 16 -39 l17 -34 25 29 c13 17 23 31 21 33 -6 5
-79 15 -79 11z"/>
<path d="M398 1617 c-35 -14 -35 -21 2 -47 28 -20 30 -20 30 -3 0 10 3 28 6
41 7 24 2 25 -38 9z"/>
<path d="M870 1535 c0 -19 2 -35 4 -35 12 0 66 23 66 29 0 7 -53 41 -64 41 -3
0 -6 -16 -6 -35z"/>
<path d="M402 1481 l-21 -29 31 -6 c55 -11 57 -9 40 29 -9 19 -19 35 -22 35
-4 0 -16 -13 -28 -29z"/>
<path d="M826 1429 c-10 -17 -16 -32 -14 -33 1 -2 20 -6 40 -9 l38 -6 -15 36
c-8 19 -15 37 -15 39 0 14 -19 -1 -34 -27z"/>
<path d="M478 1373 c-3 -21 -4 -39 -3 -41 1 -2 19 5 39 15 l36 17 -27 23 c-37
30 -40 29 -45 -14z"/>
<path d="M726 1357 l-29 -13 37 -27 36 -28 0 40 c0 45 -2 46 -44 28z"/>
<path d="M590 1342 c0 -5 6 -24 13 -41 l13 -31 23 31 c13 17 21 32 19 34 -10
9 -68 15 -68 7z"/>
<path d="M300 1025 l-74 -75 130 0 130 0 74 75 74 75 -130 0 -130 0 -74 -75z"/>
<path d="M630 1025 l-74 -75 135 0 135 0 74 75 74 75 -135 0 -135 0 -74 -75z"/>
<path d="M960 1025 l-74 -75 132 0 c130 0 132 0 132 -22 0 -19 14 -8 80 57
113 112 112 115 -58 115 l-138 0 -74 -75z"/>
<path d="M1522 857 l-194 -242 145 -5 144 -5 -104 -185 c-58 -102 -116 -205
-130 -230 l-26 -45 34 31 c133 122 585 549 587 555 2 5 -59 10 -136 11 l-140
3 144 172 c79 95 144 175 144 178 0 3 -62 5 -137 5 l-138 0 -193 -243z"/>
<path d="M87 812 c-57 -57 -87 -95 -87 -110 0 -22 2 -22 130 -22 126 0 130 1
130 21 0 14 33 55 87 110 l87 89 -130 0 -129 0 -88 -88z"/>
<path d="M417 812 c-57 -57 -87 -95 -87 -110 0 -22 2 -22 135 -22 133 0 135 0
135 22 0 15 30 53 87 110 l88 88 -135 0 -135 0 -88 -88z"/>
<path d="M747 812 c-57 -57 -87 -95 -87 -110 0 -22 2 -22 133 -22 l132 0 93
93 c50 51 92 100 92 110 0 15 -14 17 -138 17 l-137 0 -88 -88z"/>
<path d="M437 633 c-4 -3 -7 -78 -7 -165 l0 -158 285 0 285 0 0 -37 0 -38 57
58 58 57 -58 57 -57 58 0 -38 0 -37 -245 0 -245 0 0 125 0 125 -33 0 c-19 0
-37 -3 -40 -7z"/>
</g>
</svg>
