<svg version="1.1" id="Layer_1" xmlns="http://www.w3.org/2000/svg" xmlns:xlink="http://www.w3.org/1999/xlink" x="0px" y="0px"
	 width="100%" viewBox="0 0 800 800" enable-background="new 0 0 800 800" xml:space="preserve">
<path fill="green" opacity="1.000000" stroke="#000000" stroke-linecap="round" stroke-linejoin="round" stroke-width="7.000000"
	d="
M418.500000,521.000000 
	C429.779266,520.178101 440.231903,516.368042 450.490204,511.977142 
	C464.528351,505.968384 477.203918,497.867554 488.544495,487.548920 
	C501.077271,476.145538 510.703979,462.778992 519.295593,448.173889 
	C525.894836,436.955627 530.906677,425.536194 534.079956,413.020264 
	C537.606140,399.112793 538.508423,385.246307 536.600098,370.986603 
	C534.162476,352.772034 527.551636,335.930664 521.032959,318.987335 
	C514.509949,302.032776 506.482819,285.749268 498.337952,269.581635 
	C488.343811,249.743134 477.786346,230.173096 466.590698,210.947174 
	C453.987488,189.304077 441.334686,167.708481 428.132507,146.417831 
	C420.867523,134.701920 413.023560,123.357430 406.039398,111.476830 
	C402.335602,105.176346 393.993378,103.083069 388.457642,111.472054 
	C372.406616,135.796234 356.933960,160.492020 342.126343,185.574585 
	C331.359802,203.812042 320.656799,222.117676 310.961823,240.980377 
	C305.338318,251.921555 298.940887,262.476501 293.580841,273.539185 
	C282.045868,297.346466 271.021393,321.433624 262.700714,346.566437 
	C259.583771,355.981293 257.622345,365.947754 257.057800,376.003235 
	C256.974884,377.479889 257.666656,379.000000 258.000000,380.500000 
"/>
<path fill="green" opacity="1.000000" stroke="#000000" stroke-linecap="round" stroke-linejoin="round" stroke-width="8.000000"
	d="
M216.500000,586.500000 
	C226.716690,583.075317 236.318436,578.631897 245.078720,572.105652 
	C255.537109,564.314453 263.483917,554.623230 270.038879,543.522949 
	C273.846985,537.074280 277.645935,530.644226 279.975433,523.492004 
	C281.506439,518.791443 281.510010,514.797180 277.100464,510.886719 
	C264.143433,499.396332 254.098129,485.497131 245.476547,470.513489 
	C235.757797,453.623016 229.164673,435.596985 225.524384,416.495361 
	C222.208191,399.094452 220.806366,381.534546 224.168198,364.032318 
	C225.404556,357.595551 222.552704,352.746246 219.834396,348.096832 
	C212.973724,336.362152 206.764465,324.278473 200.008621,312.495056 
	C196.208359,305.866730 192.731354,305.672302 189.064224,312.534332 
	C180.311478,328.912537 171.100189,345.039825 162.278152,361.380219 
	C152.635437,379.240631 143.284958,397.245300 134.662979,415.576660 
	C124.915390,436.301208 115.731583,457.359314 109.575256,479.520905 
	C107.778854,485.987579 106.604309,492.677094 107.500000,499.500000 
"/>
<path fill="green" opacity="1.000000" stroke="#000000" stroke-linecap="round" stroke-linejoin="round" stroke-width="4.000000"
	d="
M190.500000,270.000000 
	C177.675156,271.097229 167.668671,276.680695 160.974594,287.984955 
	C145.192001,314.636963 130.628342,341.949463 116.512444,369.506378 
	C108.849747,384.465424 102.229736,399.880890 95.860672,415.442993 
	C90.317078,428.988037 85.202690,442.660492 80.517593,456.505951 
	C75.468414,471.427277 71.248772,486.624634 71.594292,502.497955 
	C72.222626,531.363525 80.991180,557.353394 99.392998,580.086609 
	C110.487450,593.792419 123.859299,604.549500 139.102036,612.811768 
	C149.133316,618.249146 160.063278,622.101929 171.497238,624.016479 
	C175.075958,624.615662 177.031265,626.701111 177.010712,630.500061 
	C176.904312,650.166626 176.833344,669.833313 176.750000,689.500000 
"/>
<path fill="green" opacity="1.000000" stroke="#000000" stroke-linecap="round" stroke-linejoin="round" stroke-width="8.000000"
	d="
M629.500000,586.500000 
	C653.314087,578.968750 671.633301,564.933167 683.688354,542.601685 
	C687.919312,534.764160 692.270447,527.164551 694.506775,518.501770 
	C697.918823,505.284576 696.123047,492.405731 692.558655,479.483826 
	C686.930420,459.080078 678.354248,439.817841 669.860474,420.561554 
	C664.455566,408.307953 658.388611,396.317627 652.130981,384.431030 
	C646.263184,373.284851 640.669556,361.992889 634.513794,350.992279 
	C628.284607,339.860596 622.173706,328.662781 615.993591,317.503540 
	C614.872131,315.478516 613.680847,313.491547 612.497131,311.501709 
	C609.794556,306.958557 606.368591,306.628448 603.564758,311.041168 
	C600.287781,316.198486 597.476685,321.653748 594.504700,327.002594 
	C587.656555,339.327698 580.937622,351.726349 573.933594,363.962006 
	C571.945190,367.435669 571.011353,370.715912 572.500000,374.500000 
"/>
<path fill="green" opacity="1.000000" stroke="#000000" stroke-linecap="round" stroke-linejoin="round" stroke-width="4.000000"
	d="
M391.500000,69.500000 
	C385.027252,67.954865 379.875793,71.612129 374.528137,74.061432 
	C364.071045,78.850883 358.305908,88.426231 352.611084,97.569191 
	C333.994141,127.458580 315.226318,157.260452 297.942383,187.967560 
	C285.939941,209.291428 273.996948,230.640839 263.045807,252.522919 
	C258.108887,262.387665 253.481705,272.419189 249.064438,282.528168 
	C246.076004,289.367249 243.950882,296.582336 240.007965,303.004883 
	C239.151001,304.400757 239.406723,305.971130 239.500000,307.500000 
"/>
<path fill="green" opacity="1.000000" stroke="#000000" stroke-linecap="round" stroke-linejoin="round" stroke-width="7.000000"
	d="
M584.500000,693.000000 
	C588.979187,693.072144 590.038757,690.370544 590.024597,686.499939 
	C589.965820,670.500122 589.876343,654.498779 590.034729,638.500366 
	C590.193604,622.447449 590.084717,625.683594 576.978638,622.077698 
	C552.803528,615.426331 532.565369,602.730469 515.992676,584.006470 
	C504.669189,571.213135 496.581360,556.596741 490.955505,540.515564 
	C489.430908,536.157593 486.415131,535.261902 482.500793,537.501404 
	C466.221863,546.814819 448.699463,552.834045 430.488586,556.949463 
	C426.734009,557.797913 422.818878,557.910156 419.003906,558.524292 
	C414.854218,559.192261 414.269348,560.300415 415.500000,564.500000 
"/>
<path fill="green" opacity="1.000000" stroke="#000000" stroke-linecap="round" stroke-linejoin="round" stroke-width="7.000000"
	d="
M213.000000,631.500000 
	C211.449173,626.605164 212.217331,625.085327 217.507690,624.038940 
	C227.355972,622.091064 236.914734,619.231262 245.981537,614.960815 
	C259.578003,608.557007 271.577637,599.830444 281.986694,588.987244 
	C292.811096,577.711243 301.598419,565.054504 307.503418,550.501404 
	C307.643066,550.157104 307.846252,549.839111 307.998108,549.499146 
	C312.961639,538.388123 313.006378,538.293152 323.989227,543.522583 
	C339.746246,551.025146 356.422699,555.399658 373.498474,558.508362 
	C378.660278,559.447998 379.987244,560.969177 379.990692,566.000000 
	C380.010071,594.166687 380.299469,622.338013 379.860382,650.497803 
	C379.670624,662.665771 379.741577,674.834473 379.492767,686.999878 
	C379.394531,691.801636 378.340393,692.818176 373.500000,693.000000 
"/>
<path fill="green" opacity="1.000000" stroke="#000000" stroke-linecap="round" stroke-linejoin="round" stroke-width="9.000000"
	d="
M319.500000,318.500000 
	C312.368927,317.939789 303.988922,325.590637 304.697052,330.471405 
	C305.730743,337.595795 306.586243,344.889282 312.426086,350.575897 
	C328.804779,366.524811 344.833344,382.833344 361.000000,399.000000 
	C365.000031,402.999969 368.568726,407.596100 373.094025,410.870026 
	C381.308655,416.812958 380.483398,425.194702 380.451599,433.499817 
	C380.443939,435.501068 379.477051,437.514038 379.555298,439.497833 
	C380.317719,458.834778 380.003754,478.165039 379.544617,497.501068 
	C379.418152,502.827454 379.866486,508.165955 379.980438,513.500427 
	C380.016144,515.172119 380.301270,516.896790 379.500000,518.500000 
"/>
<path fill="green" opacity="1.000000" stroke="#000000" stroke-linecap="round" stroke-linejoin="round" stroke-width="7.000000"
	d="
M730.500000,516.500000 
	C729.457397,525.609070 727.152466,534.528503 723.822876,542.929810 
	C718.133484,557.285339 711.307678,571.149841 701.032349,583.027954 
	C689.393433,596.482422 675.668335,607.041809 659.515625,614.533691 
	C650.050110,618.924011 640.414917,622.543640 630.013489,624.090820 
	C626.059326,624.678955 624.594788,627.539429 626.000000,631.500000 
"/>
<path fill="green" opacity="1.000000" stroke="#000000" stroke-linecap="round" stroke-linejoin="round" stroke-width="10.000000"
	d="
M604.500000,473.500000 
	C598.552673,473.724335 594.397095,477.028259 591.038391,481.528625 
	C590.104492,482.779846 589.230530,484.329712 589.527100,485.995178 
	C591.626709,497.786377 590.266418,509.668304 590.429688,521.500977 
	C590.691833,540.497375 590.526184,559.500061 590.476807,578.499939 
	C590.467407,582.101807 590.504700,585.919617 585.500000,586.500000 
"/>
<path fill="green" opacity="1.000000" stroke="#000000" stroke-linecap="round" stroke-linejoin="round" stroke-width="10.000000"
	d="
M191.500000,473.500000 
	C184.212723,473.732452 179.733490,478.020844 176.549591,484.026276 
	C176.030197,485.005951 175.749710,486.463348 176.066467,487.479279 
	C178.428436,495.054688 177.383759,502.820221 177.455505,510.500427 
	C177.603394,526.332336 177.810394,542.175415 177.366302,557.996277 
	C177.151001,565.666748 178.166748,573.334412 177.085587,581.012024 
	C176.654572,584.072693 176.017044,586.316956 172.500000,586.500000 
"/>
<path fill="green" opacity="1.000000" stroke="#000000" stroke-linecap="round" stroke-linejoin="round" stroke-width="8.000000"
	d="
M573.500000,393.500000 
	C570.620300,410.107697 567.176880,426.555695 561.547363,442.516693 
	C553.246521,466.051361 540.516663,486.804718 523.533264,505.030975 
	C521.897034,506.786957 518.709534,508.045410 520.500000,511.500000 
"/>
<path fill="green" opacity="1.000000" stroke="#000000" stroke-linecap="round" stroke-linejoin="round" stroke-width="8.000000"
	d="
M497.500000,412.750000 
	C488.784271,426.775208 475.752777,436.824280 464.460846,448.462036 
	C448.950684,464.447174 433.163574,480.163605 417.503693,496.003662 
	C415.423889,498.107330 413.121063,500.187836 415.500000,503.500000 
"/>
<path fill="green" opacity="1.000000" stroke="#000000" stroke-linecap="round" stroke-linejoin="round" stroke-width="6.000000"
	d="
M73.000000,712.500000 
	C76.237144,725.746033 82.311646,730.500000 96.000000,730.500000 
	C112.166664,730.500000 128.333679,730.454773 144.499344,730.582458 
	C145.854172,730.593140 148.629654,728.907349 148.500000,732.500000 
"/>
<path fill="green" opacity="1.000000" stroke="#000000" stroke-linecap="round" stroke-linejoin="round" stroke-width="6.000000"
	d="
M149.000000,730.750000 
	C175.501022,730.508667 201.997375,730.480713 228.502457,730.788513 
	C240.641876,730.929504 252.834366,730.747803 265.000916,730.560181 
	C266.297272,730.540222 268.788361,729.287048 268.500000,732.500000 
"/>
<path fill="green" opacity="1.000000" stroke="#000000" stroke-linecap="round" stroke-linejoin="round" stroke-width="6.000000"
	d="
M269.000000,730.750000 
	C295.834351,730.506104 322.664062,730.473083 349.502472,730.790039 
	C361.307831,730.929382 373.167755,730.752258 385.000977,730.560608 
	C386.296967,730.539612 388.788361,729.287048 388.500000,732.500000 
"/>
<path fill="green" opacity="1.000000" stroke="#000000" stroke-linecap="round" stroke-linejoin="round" stroke-width="6.000000"
	d="
M509.000000,730.750000 
	C535.501038,730.508667 561.997986,730.535767 588.502014,730.779968 
	C601.978516,730.904175 615.500732,730.619263 629.000244,730.541870 
	C654.332703,730.396606 679.689819,729.859070 704.990234,730.771240 
	C717.587463,731.225403 724.662292,725.492737 730.000000,715.500000 
"/>
<path fill="green" opacity="1.000000" stroke="#000000" stroke-linecap="round" stroke-linejoin="round" stroke-width="4.000000"
	d="
M476.500000,390.000000 
	C472.527435,390.079468 469.268951,391.722076 466.496765,394.496765 
	C451.170166,409.836823 435.841766,425.175140 420.483215,440.483154 
	C419.310089,441.652405 418.304596,442.836212 418.000000,444.500000 
"/>
<path fill="green" opacity="1.000000" stroke="#000000" stroke-linecap="round" stroke-linejoin="round" stroke-width="4.000000"
	d="
M603.500000,270.000000 
	C591.047302,270.399902 581.873108,276.961578 575.150330,286.604797 
	C569.581848,294.592285 565.316223,303.490356 560.522095,312.012421 
	C559.932251,313.061005 559.007507,314.097382 559.500000,315.500000 
"/>
<path fill="green" opacity="1.000000" stroke="#000000" stroke-linecap="round" stroke-linejoin="round" stroke-width="9.000000"
	d="
M393.500000,213.500000 
	C388.226318,214.154953 384.408905,217.099319 380.929413,220.935989 
	C378.960907,223.106598 378.322052,225.717728 378.884338,227.966400 
	C380.964233,236.284119 379.641602,244.665375 379.956024,253.001663 
	C380.182037,258.993134 380.000000,265.000000 380.000000,271.000000 
	C380.000000,298.000000 380.076599,325.000458 379.915009,351.999481 
	C379.891510,355.920776 380.626770,359.670135 381.000000,363.500000 
"/>
<path fill="green" opacity="1.000000" stroke="#000000" stroke-linecap="round" stroke-linejoin="round" stroke-width="6.000000"
	d="
M389.000000,730.750000 
	C415.833344,730.666626 442.666626,730.572449 469.500000,730.505005 
	C481.333282,730.475281 493.166992,730.460205 504.999542,730.556335 
	C506.306183,730.566956 508.788361,729.287048 508.500000,732.500000 
"/>
<path fill="green" opacity="1.000000" stroke="#000000" stroke-linecap="round" stroke-linejoin="round" stroke-width="4.000000"
	d="
M86.000000,693.500000 
	C82.212990,694.743896 78.558060,696.328979 76.039871,699.531372 
	C73.668869,702.546570 70.604668,705.488770 72.928505,710.036560 
	C73.191689,710.551636 73.332161,712.308533 71.500000,711.750000 
"/>
<path fill="green" opacity="1.000000" stroke="#000000" stroke-linecap="round" stroke-linejoin="round" stroke-width="3.000000"
	d="
M170.500000,692.500000 
	C173.063950,693.842529 174.581253,692.306763 176.000000,690.500000 
"/>
</svg>